<?xml version="1.0" standalone="no"?>
<!DOCTYPE svg PUBLIC "-//W3C//DTD SVG 20010904//EN"
 "http://www.w3.org/TR/2001/REC-SVG-20010904/DTD/svg10.dtd">
<svg version="1.0" xmlns="http://www.w3.org/2000/svg"
 width="1024.000000pt" height="1024.000000pt" viewBox="0 0 1024.000000 1024.000000"
 preserveAspectRatio="xMidYMid meet">

<g transform="translate(0.000000,1024.000000) scale(0.100000,-0.100000)"
fill="#000000" stroke="none">
<path d="M5970 8071 c-210 -68 -357 -222 -405 -422 -59 -251 62 -513 292 -632
385 -200 862 84 863 513 0 242 -191 481 -436 545 -81 21 -243 19 -314 -4z"/>
<path d="M4488 7034 c-43 -13 -89 -56 -460 -430 -227 -229 -425 -434 -441
-456 -15 -23 -32 -60 -38 -82 -15 -56 -6 -153 19 -201 23 -46 83 -106 127
-128 47 -24 129 -35 185 -26 98 15 125 38 385 329 318 356 387 430 398 430 34
0 464 -75 474 -83 16 -12 5 -32 -62 -117 -75 -94 -791 -1051 -1065 -1424 -129
-175 -357 -483 -506 -685 -279 -378 -422 -574 -722 -986 -96 -132 -194 -266
-218 -298 -24 -32 -46 -74 -50 -93 -20 -109 106 -165 207 -92 24 17 520 507
1102 1087 582 581 1064 1057 1072 1059 12 3 191 -91 603 -316 56 -31 102 -62
102 -69 0 -6 -86 -83 -192 -170 -613 -506 -790 -657 -816 -695 -35 -54 -38
-141 -6 -184 56 -75 143 -94 236 -52 60 28 1288 850 1523 1020 170 123 209
209 151 334 -37 79 -14 64 -666 442 -146 84 -273 162 -283 171 -17 17 -11 30
174 337 257 426 395 665 426 738 35 83 37 188 4 264 -28 62 -102 133 -164 156
-53 20 -1346 236 -1407 235 -25 0 -66 -7 -92 -15z"/>
</g>
</svg>
